<?xml version="1.0" encoding="UTF-8"?>
<svg id="Camada_1" data-name="Camada 1" xmlns="http://www.w3.org/2000/svg" viewBox="0 0 500 500">
  <defs>
    <style>
      .cls-1 {
        fill: #ce9708;
      }

      .cls-2 {
        fill: #f4609c;
      }

      .cls-3 {
        fill: #dedee9;
      }

      .cls-4 {
        fill: #f995c2;
      }

      .cls-5 {
        fill: #da0175;
        stroke: #da0175;
      }

      .cls-6 {
        fill: #dac555;
      }
    </style>
  </defs>
  <g>
    <path class="cls-5" d="m370.39,217.83l14.5,15.04c.61.63,1.65.18,1.65-.71,0-.55.43-1,.97-1h4.51c.72,0,1.4-.29,1.9-.81l4.77-4.95c.67-.7,1.05-1.63,1.05-2.59v-10.76c0-2.67,2.09-4.84,4.66-4.84,1.24,0,2.42.51,3.3,1.42l4.17,4.32c.7.73,1.29,1.57,1.73,2.48l2.63,5.46.35.72c2.39,4.96,3.37,10.55,2.78,16.1-.06.54-.22,1.07-.46,1.57l-2.25,4.66c-.28.59-.66,1.13-1.11,1.6l-2.61,2.71-5.56,5.77c-.58.6-.58,1.55,0,2.15l5.26,5.46c.2.2.36.44.48.69l3.11,6.46,3.3,6.84,2.96,6.14c.4.82.5,1.74.41,2.65-.27,2.74.22,5.49,1.4,7.94l1.82,3.78,3.3,6.84,2.38,4.93c.61,1.26.92,2.63.92,4.03v27.84c-.41,2.37-.96,4.71-2.02,6.83s-1.64,6.83-1.64,6.83v5.02c0,2.37-.55,4.71-1.61,6.83l-.2.4c-.96,1.91-1.46,4.02-1.47,6.16s-.48,4.29-1.44,6.21l-1.84,3.67-3.28,6.56-5.75,8.62c-.65.98-1.45,1.83-2.27,2.68-1.25,1.3-2.3,2.78-3.11,4.39l-.38.76c-1.07,2.14-2.47,4.09-4.16,5.78l-4.01,4.01-6.56,6.56-6.56,6.56-6.56,6.56-3.28,3.28-6.61,6.61c-2.07,2.07-3.23,4.87-3.23,7.79v28.08c0,1.86-.46,3.7-1.33,5.36-1.22,2.32-3.19,4.2-5.63,5.36l-1.52.72c-.79.38-1.51.88-2.13,1.49-1.52,1.5-3.71,2.11-5.85,2.11h-2.78s-6.41,0-6.41,0h-35.22c-2.09,0-4.09-.79-5.56-2.19-.6-.57-1.1-1.23-1.47-1.95l-1.42-2.71c-.8-1.53-1.85-2.92-3.1-4.11l-3.86-3.68c-.43-.4-.66-.95-.66-1.53,0-1.19-1.02-2.16-2.27-2.16h-45.83c-1.77,0-3.21,1.37-3.21,3.05v1.39c0,3.01-1.24,5.9-3.42,7.98l-.93.88c-1.37,1.3-2.95,2.39-4.68,3.21-2.5,1.19-5.25,1.81-8.05,1.81h-33.72c-4.67,0-9.28-1.12-13.45-3.29-4.07-2.1-7.16-5.79-8.6-10.25l-.46-1.44c-.31-.96-.68-1.9-1.12-2.8l-.65-1.35c-1.23-2.54-1.87-5.34-1.87-8.18v-.41c0-1.23-.15-2.45-.43-3.63l-2.19-9.06c-.33-1.35-1.5-2.3-2.84-2.3-.58,0-1.14-.18-1.63-.51l-8.79-6.06-2.05-1.42c-4.97-3.43-9.6-7.36-13.83-11.73l-6.35-6.57-6.35-6.57-6.35-6.57-5.31-5.49c-.69-.72-1.27-1.54-1.7-2.45-1.54-3.19-4.69-5.2-8.14-5.2h-3.9c-2.11,0-4.21-.27-6.26-.8l-9.62-2.49-6.43-2.22c-2.03-.7-3.88-1.88-5.4-3.45l-1.8-1.86c-1.44-1.49-2.25-3.51-2.25-5.61s.81-4.12,2.25-5.61l.04-.04c.59-.61,1.08-1.32,1.46-2.09l1.19-2.46c.93-1.93,1.42-4.06,1.42-6.22v-12.9c0-1.99-.85-3.89-2.37-5.3-.61-.57-1.32-1.04-2.1-1.4l-5.42-2.51-9.16-4.24c-2.67-1.24-5.13-2.88-7.29-4.88l-1.21-1.12c-1.41-1.3-2.58-2.81-3.47-4.46-1.29-2.38-1.95-5-1.95-7.67v-13.73c0-4.42.59-8.82,1.74-13.11,1.03-3.83,2.52-7.54,4.42-11.07l.43-.8,1.2-1.67c3.59-4.99,7.67-9.6,12.18-13.77l4.16-3.85c1.36-1.26,3.12-2.06,4.97-2.08,4.56-.06,9.11.59,13.43,1.93l2.71.84c.76.23,1.5.53,2.2.88,3.6,1.8,7.87,2.13,11.46.3,3.57-1.82,6.19-4.59,7.37-7.87l.74-2.05c1.49-4.13,4-7.79,7.18-10.82,1.18-1.13,2.25-2.35,3.19-3.66l.53-.74c2.89-4.02,6.46-7.57,10.71-10.11,2.35-1.41,4.53-3.04,6.5-4.87l3.81-3.53,5.29-4.9c.87-.81,1.82-1.53,2.83-2.15l5.28-3.26c1.93-1.19,3.09-3.2,3.09-5.35,0-1.71-.73-3.34-2.03-4.55l-2.64-2.44c-1.27-1.18-2.35-2.56-3.17-4.09l-1.85-3.42c-2.32-4.3-5.33-8.18-8.91-11.5l-1.19-1.1-2.9-2.68c-2.24-2.08-3.03-5.29-1.99-8.17l.74-2.05c.51-1.41,1.94-2.36,3.54-2.36.4,0,.8-.06,1.18-.18l4.79-1.48c3-.93,6.13-1.4,9.27-1.4h18.95c3.97,0,7.92.6,11.72,1.77l1.36.42c1.87.58,3.69,1.28,5.47,2.1l10.76,4.98c4.22,1.96,8.11,4.56,11.53,7.72l1.75,1.62c3.97,3.68,9.4,5.34,14.75,4.51l11.32-1.75,26.38-3.05h3.66l29.68,3.42c17.54,4.55,34.54,11.07,50.71,19.45l2.06,1.07,25.95,13.45c.29.15.55.35.78.58Z"/>
    <path class="cls-2" d="m264.24,200.01l-9.48,3.66h-2.26s-3.17-4.01-4.45-4.99l-1.33-1.02c-.92-.71-1.47-1.81-1.47-2.97,0-1.16.52-2.27,1.44-2.99l1.32-1.04c1.26-1,4.43-1.64,4.43-1.64l2.26,3.66,4.74-3.66,4.74,3.66,4.74-3.66h9.48c6.29-.11,12.56.65,18.66,2.19l5.05,1.28,14.24,3.6,9.5,3.63,8.21,3.14c.86.33,1.66.78,2.39,1.34l1.74,1.34c1.21.93,1.09,3.9,1.09,3.9v.22s-1.25,4.75-3.86,4.77c-6.26.04-12.48-1.09-18.33-3.32l-.65-.25-9.5-3.63-4.23-1.62c-3.48-1.33-7.18-2-10.91-1.98-2.55.02-5.08-.29-7.55-.92l-3.4-.86c-4.73-1.2-9.59-1.79-14.46-1.84h-2.13Z"/>
  </g>
  <g>
    <circle class="cls-6" cx="310.33" cy="33.86" r="29.86"/>
    <circle class="cls-1" cx="310.33" cy="33.86" r="22.4"/>
  </g>
  <g>
    <circle class="cls-6" cx="257.31" cy="82.56" r="29.86"/>
    <circle class="cls-1" cx="257.31" cy="82.56" r="22.4"/>
  </g>
  <g>
    <circle class="cls-6" cx="302.68" cy="142.44" r="29.86"/>
    <circle class="cls-1" cx="302.68" cy="142.44" r="22.4"/>
  </g>
  <g>
    <path class="cls-4" d="m187.53,240.83c-13.97,2.86-24.34,13.6-26.49,27.57-.37,2.32-.46,19.61-.37,66.54.12,57.83.21,63.64.83,65.71,1.37,4.52,2.49,7.05,4.48,10.07,4.68,7.21,11.15,11.82,20.11,14.3,2.28.66,8.08.7,67.37.7s65.09-.04,67.37-.7c4.39-1.2,7.13-2.4,10.28-4.48,7.21-4.68,11.82-11.15,14.3-20.11.66-2.28.7-8.08.7-67.37s-.04-65.09-.7-67.37c-2.49-8.95-7.09-15.42-14.3-20.11-3.03-1.99-5.56-3.11-10.07-4.48-2.07-.62-7.84-.7-66.54-.79-51.86-.04-64.8.04-66.95.5Zm130.38,13.27c7.13,1.87,12.64,7.42,14.51,14.59.95,3.57.95,125.2,0,128.77-1.87,7.17-7.38,12.73-14.51,14.59-2.16.54-10.12.62-64.47.62s-62.31-.08-64.47-.62c-7.13-1.87-12.64-7.42-14.51-14.59-.95-3.57-.95-125.2,0-128.77,1.87-7.09,7.34-12.69,14.34-14.55,3.48-.95,125.49-.95,129.1-.04Z"/>
    <path class="cls-3" d="m215.48,280.63c-7.13,1.53-13.52,5.93-17.29,11.9-3.19,4.97-5.14,12.56-4.1,16,1.33,4.35,7.01,6.05,10.45,3.15,1.7-1.45,2.07-2.28,2.53-5.47.79-5.43,3.65-9.49,8.21-11.65,1.91-.87,2.9-1.08,5.43-1.04,7.01.04,11.86,4.73,12.81,12.35.62,5.02,2.57,7.09,6.67,7.09,5.47,0,7.63-4.23,6.05-11.82-2.9-14.01-17.12-23.51-30.76-20.52Z"/>
    <path class="cls-3" d="m281.81,280.63c-7.13,1.53-13.52,5.93-17.29,11.9-3.19,4.97-5.14,12.56-4.1,16,1.33,4.35,7.01,6.05,10.45,3.15,1.7-1.45,2.07-2.28,2.53-5.47.79-5.43,3.65-9.49,8.21-11.65,1.91-.87,2.9-1.08,5.43-1.04,7.01.04,11.86,4.73,12.81,12.35.62,5.02,2.57,7.09,6.67,7.09,5.47,0,7.63-4.23,6.05-11.82-2.9-14.01-17.12-23.51-30.76-20.52Z"/>
    <path class="cls-3" d="m307.14,346.88c-1.82.87-2.4,1.66-5.35,7.59-7.67,15.17-20.36,25.54-36.57,29.73-5.18,1.33-6.3,1.49-12.52,1.91-4.1.25-5.27.46-6.22,1.16-4.02,2.94-4.02,8.08.04,11.07,1.49,1.08,5.1,1.33,11.19.7,24.83-2.61,45.23-16.79,56.18-39.01,2.03-4.1,2.36-5.1,2.36-7.13,0-2.53-.7-3.9-2.78-5.43-1.37-1.04-4.68-1.33-6.34-.58Z"/>
  </g>
</svg>